<svg width="312" height="20" viewBox="0 0 312 20" fill="none" xmlns="http://www.w3.org/2000/svg">
<circle cx="10" cy="10" r="10" fill="url(#paint0_linear_24_7)"/>
<path d="M26 11H140" stroke="#EEEEFF" stroke-width="2" stroke-linecap="round" stroke-linejoin="round"/>
<path fill-rule="evenodd" clip-rule="evenodd" d="M86.7566 8.16304L75 10V12L86.7566 13.837C87.0836 13.9426 87.4346 14 87.7999 14C87.7999 14 87.8 14 87.8001 14C89.5673 13.9999 90.9999 12.6568 90.9999 11C90.9999 9.34321 89.5673 8.0001 87.8001 8C87.8 8 87.7999 8 87.7999 8C87.4346 8 87.0836 8.05738 86.7566 8.16304Z" fill="url(#paint1_linear_24_7)"/>
<circle cx="156" cy="10" r="10" fill="url(#paint2_linear_24_7)"/>
<path d="M172 11H286" stroke="#EEEEFF" stroke-width="2" stroke-linecap="round" stroke-linejoin="round"/>
<path fill-rule="evenodd" clip-rule="evenodd" d="M232.757 8.16304L221 10V12L232.757 13.837C233.084 13.9426 233.435 14 233.8 14C233.8 14 233.8 14 233.8 14C235.567 13.9999 237 12.6568 237 11C237 9.34321 235.567 8.0001 233.8 8C233.8 8 233.8 8 233.8 8C233.435 8 233.084 8.05738 232.757 8.16304Z" fill="url(#paint3_linear_24_7)"/>
<circle cx="302" cy="10" r="10" fill="url(#paint4_linear_24_7)"/>
<defs>
<linearGradient id="paint0_linear_24_7" x1="20.8287" y1="16.3411" x2="-5.69838" y2="14.6986" gradientUnits="userSpaceOnUse">
<stop stop-color="#DADAFF"/>
<stop offset="1" stop-color="#EEEEFF" stop-opacity="0"/>
</linearGradient>
<linearGradient id="paint1_linear_24_7" x1="81.9334" y1="11" x2="71.2666" y2="11" gradientUnits="userSpaceOnUse">
<stop stop-color="#EEEEFF"/>
<stop offset="1" stop-color="#EEEEFF" stop-opacity="0"/>
</linearGradient>
<linearGradient id="paint2_linear_24_7" x1="166.829" y1="16.3411" x2="140.302" y2="14.6986" gradientUnits="userSpaceOnUse">
<stop stop-color="#DADAFF"/>
<stop offset="1" stop-color="#EEEEFF" stop-opacity="0"/>
</linearGradient>
<linearGradient id="paint3_linear_24_7" x1="227.933" y1="11" x2="217.267" y2="11" gradientUnits="userSpaceOnUse">
<stop stop-color="#EEEEFF"/>
<stop offset="1" stop-color="#EEEEFF" stop-opacity="0"/>
</linearGradient>
<linearGradient id="paint4_linear_24_7" x1="312.829" y1="16.3411" x2="286.302" y2="14.6986" gradientUnits="userSpaceOnUse">
<stop stop-color="#DADAFF"/>
<stop offset="1" stop-color="#EEEEFF" stop-opacity="0"/>
</linearGradient>
</defs>
</svg>
